<svg xmlns="http://www.w3.org/2000/svg" viewBox="0 0 64 64" fill="#8B4513">
  <!-- Sorting Hat -->
  <path d="M32 4C18 4 12 16 10 24c-1 4-2 8-2 12 0 8 4 16 10 20 4 2 8 4 14 4 6 0 10-2 14-4 6-4 10-12 10-20 0-4-1-8-2-12-2-8-8-20-22-20z" fill="#8B4513"/>
  <!-- Hat wrinkles and details -->
  <path d="M32 4C18 4 12 16 10 24c2-3 6-6 12-8 8-2 16-2 24 0 6 2 10 5 12 8-2-8-8-20-22-20z" fill="#A0522D"/>
  <path d="M34 40c6-2 10-6 12-10 1-2 1-4 1-6 0-4-1-8-2-12-1 2-4 4-8 6-5 2-10 3-14 3-4 0-9-1-14-3-4-2-7-4-8-6-1 4-2 8-2 12 0 2 0 4 1 6 2 4 6 8 12 10" fill="#8B4513" opacity="0.5"/>
  <!-- Face features -->
  <path d="M26 34c0 1.1.9 2 2 2s2-.9 2-2-.9-2-2-2-2 .9-2 2z" fill="#222"/>
  <path d="M38 34c0 1.1-.9 2-2 2s-2-.9-2-2 .9-2 2-2 2 .9 2 2z" fill="#222"/>
  <path d="M32 42c-3 0-6-1-6-1s2 3 6 3 6-3 6-3-3 1-6 1z" fill="#222"/>
</svg>